<?xml version="1.0" standalone="no"?>
<!DOCTYPE svg PUBLIC "-//W3C//DTD SVG 20010904//EN"
 "http://www.w3.org/TR/2001/REC-SVG-20010904/DTD/svg10.dtd">
<svg version="1.0" xmlns="http://www.w3.org/2000/svg"
 width="500.000000pt" height="500.000000pt" viewBox="0 0 500.000000 500.000000"
 preserveAspectRatio="xMidYMid meet">

<g transform="translate(0.000000,500.000000) scale(0.100000,-0.100000)"
fill="#000000" stroke="none">
<path d="M2850 4076 c-417 -89 -719 -448 -720 -857 0 -47 -3 -107 -6 -133 l-7
-46 -109 0 c-455 0 -797 -262 -914 -700 -26 -98 -24 -298 4 -413 65 -261 236
-474 475 -592 121 -59 223 -85 375 -92 l122 -6 0 110 0 110 -100 7 c-55 4
-134 16 -176 26 -186 48 -347 184 -435 366 -90 190 -77 447 33 632 45 77 159
189 238 235 131 76 247 97 538 97 l182 0 0 223 c0 266 10 323 77 457 158 316
549 455 870 310 240 -109 403 -358 403 -615 l0 -55 110 0 110 0 0 73 c0 384
-272 737 -652 848 -94 27 -321 35 -418 15z"/>
<path d="M3700 2075 l0 -835 110 0 110 0 0 835 0 835 -110 0 -110 0 0 -835z"/>
<path d="M3240 1870 l0 -630 110 0 110 0 0 630 0 630 -110 0 -110 0 0 -630z"/>
<path d="M2775 1650 l0 -410 113 0 112 0 0 410 0 410 -112 0 -113 0 0 -410z"/>
<path d="M2310 1485 l0 -245 115 0 115 0 0 245 0 245 -115 0 -115 0 0 -245z"/>
<path d="M2490 861 l0 -49 -38 5 c-81 11 -131 -49 -119 -141 8 -59 43 -86 111
-86 39 0 61 6 80 21 26 20 26 21 26 160 l0 139 -30 0 c-29 0 -30 -1 -30 -49z
m-5 -156 l0 -60 -35 -3 c-41 -4 -60 16 -60 64 0 43 24 66 64 62 31 -3 31 -3
31 -63z"/>
<path d="M1690 745 l0 -155 25 0 25 0 0 155 0 155 -25 0 -25 0 0 -155z"/>
<path d="M2610 860 l0 -29 71 -3 72 -3 -72 -90 c-48 -62 -71 -99 -71 -117 l0
-28 115 0 115 0 0 25 c0 24 -2 25 -70 25 -38 0 -70 3 -70 7 0 3 32 48 70 99
44 58 70 103 70 119 l0 25 -115 0 -115 0 0 -30z"/>
<path d="M1380 735 l0 -145 35 0 35 0 0 49 c0 77 19 80 65 11 38 -57 42 -59
82 -60 l43 0 -61 86 -61 85 52 60 51 59 -39 0 c-37 0 -43 -4 -86 -62 l-46 -62
0 62 0 62 -35 0 -35 0 0 -145z"/>
<path d="M1854 811 c-37 -16 -54 -51 -54 -109 0 -46 4 -58 29 -83 40 -39 115
-42 158 -5 25 22 28 30 28 90 0 54 -4 69 -22 87 -24 24 -103 35 -139 20z m94
-53 c7 -7 12 -31 12 -54 0 -33 -5 -47 -22 -58 -28 -20 -43 -20 -62 0 -19 18
-22 94 -4 112 15 15 61 15 76 0z"/>
<path d="M2934 808 c-30 -14 -44 -50 -44 -112 0 -44 4 -58 26 -80 22 -22 36
-26 81 -26 44 0 59 5 78 24 50 50 41 162 -15 191 -33 17 -95 19 -126 3z m106
-57 c16 -31 12 -79 -10 -101 -24 -24 -43 -25 -64 -4 -22 22 -24 86 -4 112 16
19 66 15 78 -7z"/>
<path d="M3198 808 l-38 -10 0 -104 0 -104 30 0 29 0 3 88 3 87 30 3 c42 5 55
-19 55 -105 l0 -73 31 0 31 0 -4 95 c-2 72 -7 98 -20 111 -20 21 -99 27 -150
12z"/>
<path d="M3473 808 c-50 -24 -68 -119 -33 -175 22 -37 46 -46 116 -41 45 3 49
5 52 29 3 26 2 27 -43 22 -35 -4 -50 -1 -65 12 -11 10 -20 22 -20 27 0 4 34 8
75 8 74 0 75 0 75 25 0 34 -25 82 -49 95 -25 13 -79 12 -108 -2z m89 -49 c4
-27 0 -32 -26 -35 -16 -2 -36 1 -44 5 -12 7 -11 12 6 29 20 20 60 21 64 1z"/>
<path d="M2070 741 c0 -115 25 -151 105 -151 80 0 105 37 105 158 l0 62 -30 0
-30 0 0 -69 c0 -87 -5 -101 -39 -101 -42 0 -51 17 -51 97 l0 73 -30 0 -30 0 0
-69z"/>
</g>
</svg>
